<?xml version="1.0" standalone="no"?>
<!DOCTYPE svg PUBLIC "-//W3C//DTD SVG 20010904//EN"
 "http://www.w3.org/TR/2001/REC-SVG-20010904/DTD/svg10.dtd">
<svg version="1.0" xmlns="http://www.w3.org/2000/svg"
 width="260.000000pt" height="260.000000pt" viewBox="0 0 260.000000 260.000000"
 preserveAspectRatio="xMidYMid meet">
<metadata>
Created by potrace 1.14, written by Peter Selinger 2001-2017
</metadata>
<g transform="translate(0.000000,260.000000) scale(0.100000,-0.100000)"
fill="#000000" stroke="none">
<path d="M530 1940 c-205 -38 -343 -175 -407 -402 -25 -91 -25 -386 0 -478 58
-213 188 -339 391 -377 89 -17 214 -13 281 9 53 17 133 94 141 136 4 18 10 32
14 32 9 0 20 -76 20 -136 l0 -42 193 5 c105 2 198 6 205 9 9 3 12 24 10 76
l-3 73 -85 12 c-47 6 -86 12 -87 12 -2 1 -3 240 -3 531 l0 530 -125 0 -125 0
0 -85 c0 -89 -13 -113 -24 -45 -8 50 -64 110 -121 128 -49 17 -214 24 -275 12z
m251 -170 c56 -16 115 -73 141 -138 22 -55 23 -68 23 -327 0 -311 -8 -359 -69
-413 -51 -44 -94 -55 -205 -50 -112 5 -156 23 -215 88 -74 82 -101 182 -100
375 1 196 29 295 112 387 53 59 120 88 207 88 39 0 86 -5 106 -10z"/>
<path d="M550 1510 c-11 -7 -6 -10 20 -10 39 -1 61 -14 78 -47 26 -49 5 -140
-37 -163 -27 -14 -29 -13 -57 17 l-26 28 -19 -24 c-29 -35 -24 -73 16 -121 40
-48 40 -50 20 -90 -19 -38 -49 -53 -85 -45 -29 6 -29 6 -20 -27 15 -52 42 -81
103 -112 47 -23 69 -28 129 -28 40 0 85 4 99 10 43 17 101 73 120 117 20 44
26 169 9 180 -5 3 -10 -1 -10 -9 0 -24 -39 -30 -61 -10 -24 22 -24 35 1 84 11
22 19 54 19 72 -1 22 -3 26 -6 12 -6 -29 -37 -57 -60 -52 -15 3 -18 12 -15 58
3 44 -1 62 -20 90 -40 60 -152 100 -198 70z"/>
<path d="M1210 1780 l0 -150 90 0 90 0 2 -477 3 -478 160 0 160 0 3 478 2 477
115 0 114 0 3 -367 c3 -351 4 -370 25 -421 33 -81 66 -117 140 -154 68 -33 68
-33 219 -33 84 0 155 3 159 7 4 4 1 74 -6 155 l-14 148 -65 -3 c-39 -2 -75 2
-90 10 -42 23 -48 69 -49 376 l-1 282 110 0 110 0 0 150 0 150 -640 0 -640 0
0 -150z"/>
</g>
</svg>
