<?xml version="1.0" standalone="no"?>
<!DOCTYPE svg PUBLIC "-//W3C//DTD SVG 20010904//EN"
 "http://www.w3.org/TR/2001/REC-SVG-20010904/DTD/svg10.dtd">
<svg version="1.0" xmlns="http://www.w3.org/2000/svg"
 width="260.000000pt" height="260.000000pt" viewBox="0 0 260.000000 260.000000"
 preserveAspectRatio="xMidYMid meet">
<metadata>
Created by potrace 1.14, written by Peter Selinger 2001-2017
</metadata>
<g transform="translate(0.000000,260.000000) scale(0.100000,-0.100000)"
fill="#000000" stroke="none">
<path d="M765 2581 l-30 -7 40 -6 c22 -3 49 -9 59 -14 14 -5 17 -4 12 4 -11
18 0 14 15 -5 12 -15 12 -16 -1 -8 -9 5 -8 0 4 -13 21 -24 31 -29 20 -9 -4 6
-3 9 1 4 5 -4 10 -15 11 -25 2 -9 8 -38 15 -63 10 -38 9 -54 -6 -105 -10 -32
-17 -63 -16 -69 2 -5 0 -7 -4 -4 -3 4 -18 -4 -33 -18 -21 -19 -34 -24 -60 -20
-23 4 -31 2 -26 -6 4 -8 2 -7 -7 1 -8 7 -14 18 -14 25 0 7 -5 12 -12 12 -6 0
-15 3 -19 8 -4 4 -17 -1 -28 -10 -21 -18 -21 -18 -2 4 16 19 22 21 34 10 13
-10 15 -9 9 6 -4 10 -7 20 -7 23 0 2 -7 1 -15 -2 -26 -10 -55 -69 -55 -113 0
-33 7 -49 36 -81 20 -22 40 -38 44 -35 4 3 14 -3 21 -12 8 -9 9 -14 3 -10 -8
5 -10 -6 -7 -38 4 -34 0 -52 -17 -79 -12 -20 -18 -36 -15 -36 4 0 2 -7 -5 -15
-11 -13 -8 -15 19 -15 89 0 152 82 117 152 -9 17 -14 33 -12 35 2 2 11 -12 20
-32 23 -48 13 -86 -30 -124 -33 -30 -52 -37 -104 -43 -22 -3 -25 -7 -24 -41 2
-50 45 -112 108 -154 27 -18 44 -33 39 -33 -5 0 -19 7 -31 16 -15 10 -27 12
-39 6 -22 -13 16 -22 158 -38 104 -12 224 38 275 115 21 32 24 43 15 60 -6 11
-11 23 -11 28 1 4 8 -5 16 -20 9 -16 13 -31 10 -34 -7 -8 80 -81 125 -103 51
-27 63 -25 19 2 -19 12 -39 21 -43 20 -5 -1 -5 3 -1 9 5 8 3 9 -6 4 -9 -5 -11
-4 -6 3 4 7 2 10 -6 9 -7 -2 -10 -2 -6 0 4 3 2 15 -4 29 -8 17 -14 21 -19 12
-4 -7 -2 -19 4 -28 11 -13 10 -13 -5 -1 -10 7 -15 17 -12 22 3 5 1 9 -5 9 -5
0 -21 24 -36 54 -21 43 -25 65 -23 111 4 83 23 80 23 -3 1 -49 7 -78 23 -109
24 -46 38 -56 29 -21 -6 20 16 88 27 88 3 0 -2 -16 -10 -35 -12 -30 -12 -40
-1 -67 37 -88 126 -143 248 -154 64 -5 87 -3 145 16 143 47 183 87 195 198 l7
67 -2 -67 c-1 -52 -7 -75 -24 -98 -27 -35 -17 -39 18 -7 14 12 19 18 10 12
-10 -6 -8 -2 4 13 20 23 32 30 21 12 -3 -5 -2 -10 4 -10 14 0 69 72 86 114 30
71 11 213 -29 213 -12 0 -15 -5 -10 -16 4 -9 9 -52 11 -97 5 -72 3 -85 -21
-132 -14 -29 -31 -52 -36 -52 -14 0 -13 7 5 34 9 13 20 50 25 82 11 67 3 164
-12 142 -6 -8 -7 -5 -2 12 7 28 23 42 37 33 5 -3 7 0 5 8 -3 8 -11 13 -17 11
-7 -1 -10 2 -6 8 3 5 -2 20 -11 33 l-17 22 -31 -30 c-17 -16 -31 -33 -31 -37
0 -3 -4 -10 -9 -15 -5 -4 -7 -4 -4 2 4 6 -15 10 -51 9 l-57 -1 1 48 c0 26 4
47 9 46 15 -3 39 70 32 97 -3 14 -21 42 -38 62 -31 36 -32 36 -40 13 -5 -12
-6 -29 -4 -36 3 -7 0 -12 -6 -10 -7 1 -12 -4 -13 -12 0 -8 -7 -16 -15 -17 -78
-17 -99 -20 -94 -13 4 8 -8 13 -26 11 -3 0 -7 9 -9 21 -5 40 -6 175 -1 172 3
-2 17 22 32 53 21 44 23 51 8 33 -11 -13 -20 -20 -20 -15 0 17 -93 -83 -112
-121 -13 -24 -23 -67 -26 -109 -6 -80 15 -216 30 -195 7 10 8 9 4 -6 -3 -11
-7 -39 -8 -62 -2 -23 -7 -41 -13 -40 -5 1 -9 -4 -8 -10 2 -7 0 -12 -5 -11 -4
1 -20 -1 -37 -5 -16 -4 -43 -3 -60 1 -27 7 -31 14 -40 61 l-11 54 -14 -29 c-7
-16 -14 -33 -14 -38 -2 -17 -23 -17 -37 1 -13 16 -12 17 4 4 9 -8 20 -11 24
-7 3 3 1 6 -6 6 -6 0 -16 10 -21 23 -6 16 -9 18 -9 5 -1 -10 -9 -22 -20 -27
-14 -8 -23 -5 -42 16 -13 14 -19 24 -14 20 7 -3 11 11 11 36 0 23 3 51 8 62
l9 20 -17 -20 c-17 -20 -17 -20 -6 3 6 12 15 20 21 17 16 -10 39 61 38 117
l-2 53 -7 -44 c-9 -57 -41 -85 -87 -78 -24 4 -32 2 -27 -6 4 -7 3 -9 -1 -4
-14 12 -15 48 -3 99 9 36 9 57 -1 88 -20 68 -121 163 -153 144 -6 -4 -8 -3 -5
3 4 6 0 13 -8 17 -27 10 -110 15 -140 7z m282 -134 c8 -16 12 -31 10 -34 -3
-2 -8 5 -12 17 -4 12 -23 41 -43 64 -36 41 -36 41 -3 11 18 -16 39 -43 48 -58z
m515 66 c-6 -3 -9 -10 -6 -15 4 -7 2 -8 -5 -4 -9 6 -9 11 0 22 6 8 15 12 18 8
3 -4 0 -9 -7 -11z m-644 -38 c-3 -3 -9 2 -12 12 -6 14 -5 15 5 6 7 -7 10 -15
7 -18z m93 -26 c11 -22 19 -44 17 -48 -2 -4 -15 17 -29 46 -14 28 -21 50 -17
47 5 -3 17 -23 29 -45z m509 28 c0 -2 -10 -12 -22 -23 l-23 -19 19 23 c18 21
26 27 26 19z m-453 -114 c-3 -10 -5 -4 -5 12 0 17 2 24 5 18 2 -7 2 -21 0 -30z
m460 5 c-3 -7 -5 -2 -5 12 0 14 2 19 5 13 2 -7 2 -19 0 -25z m-490 -80 c-2
-18 -4 -4 -4 32 0 36 2 50 4 33 2 -18 2 -48 0 -65z m-110 50 c-3 -8 -6 -5 -6
6 -1 11 2 17 5 13 3 -3 4 -12 1 -19z m824 -5 c13 -16 12 -17 -3 -4 -10 7 -18
15 -18 17 0 8 8 3 21 -13z m-304 -15 c-3 -8 -6 -5 -6 6 -1 11 2 17 5 13 3 -3
4 -12 1 -19z m-265 -75 c-6 -3 -10 -8 -8 -12 3 -4 -1 -8 -9 -8 -13 0 -12 4 2
19 9 10 19 15 22 12 3 -4 0 -9 -7 -11z m-59 -30 c-7 -2 -19 -2 -25 0 -7 3 -2
5 12 5 14 0 19 -2 13 -5z m-424 -108 c9 -12 4 -8 -11 7 -16 16 -28 34 -28 41
0 6 6 3 12 -8 6 -11 18 -29 27 -40z m1252 18 c11 -15 11 -16 -1 -6 -11 10 -19
9 -39 -10 l-26 -22 24 28 c14 15 25 27 27 27 1 0 8 -8 15 -17z m-824 -25 c-3
-8 -6 -5 -6 6 -1 11 2 17 5 13 3 -3 4 -12 1 -19z m540 -45 c20 -41 36 -60 56
-67 22 -8 30 -7 37 4 8 13 10 12 10 -2 0 -13 -8 -18 -26 -18 -32 0 -78 47 -94
95 -6 19 -15 35 -20 35 -5 0 -14 -26 -20 -57 -16 -77 -21 -88 -16 -32 6 54 22
99 35 99 5 0 22 -26 38 -57z m-800 11 c-3 -3 -12 -4 -19 -1 -8 3 -5 6 6 6 11
1 17 -2 13 -5z m94 -63 c53 -56 57 -58 73 -43 16 16 17 16 11 0 -13 -32 -33
-27 -71 19 -20 25 -51 54 -68 64 -17 10 -24 19 -16 19 8 0 40 -27 71 -59z
m1049 16 c0 -5 -4 -5 -10 -2 -5 3 -10 14 -10 23 0 15 2 15 10 2 5 -8 10 -19
10 -23z m-936 -7 c-17 -33 -27 -40 -17 -12 6 17 23 42 28 42 2 0 -3 -13 -11
-30z m47 -53 c7 -28 20 -44 45 -59 19 -11 33 -27 33 -36 -1 -15 -2 -15 -6 -1
-2 9 -15 21 -28 27 -33 15 -53 49 -59 102 -5 44 -4 41 15 -33z m-354 16 c-3
-10 -5 -2 -5 17 0 19 2 27 5 18 2 -10 2 -26 0 -35z m1099 -33 c13 -19 24 -39
24 -45 0 -5 -12 9 -26 33 -14 23 -28 42 -32 42 -4 0 -18 10 -32 21 l-25 21 34
-19 c18 -10 44 -34 57 -53z m152 33 c1 -24 0 -25 -9 -10 -5 9 -7 22 -4 27 9
15 10 13 13 -17z m-438 -54 c-13 -30 -81 -89 -103 -89 -6 0 10 14 36 31 30 20
51 42 59 64 6 19 14 33 16 30 3 -2 -1 -19 -8 -36z m-333 -11 c-3 -7 -5 -2 -5
12 0 14 2 19 5 13 2 -7 2 -19 0 -25z m769 -22 c-3 -18 -13 -41 -22 -52 -15
-19 -15 -19 -6 1 5 11 13 40 17 65 5 25 10 39 12 32 3 -7 2 -28 -1 -46z m-652
-65 c-2 -3 -12 3 -22 13 -16 17 -16 18 5 5 12 -7 20 -15 17 -18z m81 -1 c-11
-5 -31 -8 -45 -8 -23 0 -22 1 5 8 42 11 65 11 40 0z"/>
<path d="M1150 2056 c0 -2 8 -10 18 -17 15 -13 16 -12 3 4 -13 16 -21 21 -21
13z"/>
<path d="M684 1875 c-23 -17 -77 -19 -106 -4 -20 11 -20 9 -13 -27 3 -21 14
-52 22 -69 22 -42 73 -94 88 -89 7 3 16 0 21 -7 5 -8 3 -10 -6 -4 -8 5 -11 4
-6 -3 4 -6 14 -8 23 -5 11 4 14 3 9 -5 -5 -8 -1 -10 10 -5 13 5 15 3 9 -7 -6
-10 -4 -12 9 -7 10 4 22 7 28 7 6 0 3 9 -7 20 -10 11 -23 17 -29 13 -6 -3 -8
-3 -4 1 3 4 -4 23 -18 43 -30 44 -41 98 -24 118 7 8 9 15 5 15 -4 0 -2 7 5 15
16 19 9 19 -16 0z m-81 -85 c3 -11 2 -18 -3 -15 -4 3 -10 14 -13 25 -3 11 -2
18 3 15 4 -3 10 -14 13 -25z m77 -54 c25 -28 34 -42 20 -31 -36 30 -59 56 -75
90 -9 17 -10 21 -3 11 7 -11 33 -43 58 -70z m-25 -26 c10 -11 16 -20 13 -20
-3 0 -13 9 -23 20 -10 11 -16 20 -13 20 3 0 13 -9 23 -20z"/>
<path d="M750 1533 c0 -10 3 -35 7 -56 5 -33 11 -40 45 -54 24 -10 43 -25 49
-40 15 -39 11 -673 -4 -703 -7 -14 -28 -30 -47 -36 -30 -10 -36 -17 -42 -50
-14 -81 -39 -74 257 -74 l265 0 0 38 c0 63 -8 78 -48 88 -30 7 -39 16 -49 44
-15 44 -18 628 -3 681 10 34 41 59 74 59 16 0 26 31 26 83 l0 37 -265 0 c-246
0 -265 -1 -265 -17z"/>
<path d="M1350 1506 c0 -57 8 -76 31 -76 10 0 31 -11 46 -24 l28 -24 0 -449
c0 -534 1 -529 -96 -626 -58 -57 -59 -60 -49 -92 6 -18 21 -42 33 -53 l23 -22
100 49 c112 55 192 126 238 211 51 95 58 151 63 580 5 431 6 432 63 445 37 8
37 9 46 73 l7 52 -267 0 -266 0 0 -44z"/>
</g>
</svg>
