<?xml version="1.0" encoding="UTF-8" standalone="no"?>
<svg
   xmlns:dc="http://purl.org/dc/elements/1.1/"
   xmlns:cc="http://creativecommons.org/ns#"
   xmlns:rdf="http://www.w3.org/1999/02/22-rdf-syntax-ns#"
   xmlns:svg="http://www.w3.org/2000/svg"
   xmlns="http://www.w3.org/2000/svg"
   xmlns:sodipodi="http://sodipodi.sourceforge.net/DTD/sodipodi-0.dtd"
   xmlns:inkscape="http://www.inkscape.org/namespaces/inkscape"
   width="300"
   zoomAndPan="magnify"
   viewBox="0 0 224.87999 74.999997"
   height="100"
   preserveAspectRatio="xMidYMid meet"
   version="1.0"
   id="svg142"
   sodipodi:docname="andresperez_300×100_white.svg"
   inkscape:version="0.92.5 (2060ec1f9f, 2020-04-08)"
   inkscape:export-filename="/home/aperez/Downloads/Logos/andresperez_300×100.png"
   inkscape:export-xdpi="96"
   inkscape:export-ydpi="96">
  <metadata
     id="metadata146">
    <rdf:RDF>
      <cc:Work
         rdf:about="">
        <dc:format>image/svg+xml</dc:format>
        <dc:type
           rdf:resource="http://purl.org/dc/dcmitype/StillImage" />
        <dc:title></dc:title>
      </cc:Work>
    </rdf:RDF>
  </metadata>
  <sodipodi:namedview
     pagecolor="#ffffff"
     bordercolor="#666666"
     borderopacity="1"
     objecttolerance="10"
     gridtolerance="10"
     guidetolerance="10"
     inkscape:pageopacity="0"
     inkscape:pageshadow="2"
     inkscape:window-width="1920"
     inkscape:window-height="1009"
     id="namedview144"
     showgrid="false"
     inkscape:zoom="2.6210091"
     inkscape:cx="96.731323"
     inkscape:cy="15.23982"
     inkscape:window-x="1920"
     inkscape:window-y="0"
     inkscape:window-maximized="1"
     inkscape:current-layer="g2406" />
  <defs
     id="defs22">
    <g
       id="g2" />
    <clipPath
       id="id1">
      <path
         d="M 2.539062 2.5625 L 22.777344 2.5625 L 22.777344 29.546875 L 2.539062 29.546875 Z M 2.539062 2.5625 "
         clip-rule="nonzero"
         id="path4" />
    </clipPath>
    <clipPath
       id="id2">
      <path
         d="M 6 17 L 21 17 L 21 29.546875 L 6 29.546875 Z M 6 17 "
         clip-rule="nonzero"
         id="path7" />
    </clipPath>
    <clipPath
       id="id3">
      <path
         d="M 9 21 L 19 21 L 19 29.546875 L 9 29.546875 Z M 9 21 "
         clip-rule="nonzero"
         id="path10" />
    </clipPath>
    <clipPath
       id="id4">
      <path
         d="M 129.476562 2.5625 L 152.714844 2.5625 L 152.714844 29.546875 L 129.476562 29.546875 Z M 129.476562 2.5625 "
         clip-rule="nonzero"
         id="path13" />
    </clipPath>
    <clipPath
       id="id5">
      <path
         d="M 133 15 L 149 15 L 149 29.546875 L 133 29.546875 Z M 133 15 "
         clip-rule="nonzero"
         id="path16" />
    </clipPath>
    <clipPath
       id="id6">
      <path
         d="M 138 21 L 147 21 L 147 29.546875 L 138 29.546875 Z M 138 21 "
         clip-rule="nonzero"
         id="path19" />
    </clipPath>
    <clipPath
       id="id1-1">
      <path
         style="clip-rule:nonzero"
         inkscape:connector-curvature="0"
         d="m 41.652344,0 h 57.0625 v 74.617188 h -57.0625 z m 0,0"
         id="path4-0" />
    </clipPath>
    <clipPath
       id="id2-3">
      <path
         style="clip-rule:nonzero"
         inkscape:connector-curvature="0"
         d="M 52,40 H 94 V 74.617188 H 52 Z m 0,0"
         id="path7-0" />
    </clipPath>
    <clipPath
       id="id3-4">
      <path
         style="clip-rule:nonzero"
         inkscape:connector-curvature="0"
         d="M 60,52 H 88 V 74.617188 H 60 Z m 0,0"
         id="path10-4" />
    </clipPath>
  </defs>
  <g
     fill="#022033"
     fill-opacity="1"
     id="g76">
    <g
       transform="translate(126.656243, 58.639077)"
       id="g74">
      <g
         id="g72" />
    </g>
  </g>
  <flowRoot
     xml:space="preserve"
     id="flowRoot148"
     style="font-style:normal;font-variant:normal;font-weight:bold;font-stretch:normal;font-size:40px;line-height:1.25;font-family:'Cascadia Mono';-inkscape-font-specification:'Cascadia Mono, Bold';font-variant-ligatures:normal;font-variant-caps:normal;font-variant-numeric:normal;font-feature-settings:normal;text-align:start;letter-spacing:0px;word-spacing:-22.00000763px;writing-mode:lr-tb;text-anchor:start;fill:#ffffff;fill-opacity:1;stroke:none;"
     transform="matrix(0.74999997,0,0,0.74999997,62.930631,-120.71129)"><flowRegion
       id="flowRegion150"
       style="font-style:normal;font-variant:normal;font-weight:bold;font-stretch:normal;font-size:40px;font-family:'Cascadia Mono';-inkscape-font-specification:'Cascadia Mono, Bold';font-variant-ligatures:normal;font-variant-caps:normal;font-variant-numeric:normal;font-feature-settings:normal;text-align:start;word-spacing:-22.00000763px;writing-mode:lr-tb;text-anchor:start;fill:#ffffff;fill-opacity:1;"><rect
         id="rect152"
         width="228.77699"
         height="58.273365"
         x="-7.553957"
         y="184.17267"
         style="font-style:normal;font-variant:normal;font-weight:bold;font-stretch:normal;font-size:40px;font-family:'Cascadia Mono';-inkscape-font-specification:'Cascadia Mono, Bold';font-variant-ligatures:normal;font-variant-caps:normal;font-variant-numeric:normal;font-feature-settings:normal;text-align:start;word-spacing:-22.00000763px;writing-mode:lr-tb;text-anchor:start;fill:#ffffff;fill-opacity:1;" /></flowRegion><flowPara
       id="flowPara154"
       style="letter-spacing:-2.5px;word-spacing:-15px;fill:#ffffff;fill-opacity:1;">νδρες Περεζ</flowPara></flowRoot>  <g
     id="g2406"
     transform="matrix(0.66666668,0,0,0.66666668,-0.1358379,-43.255395)">
    <flowRoot
       transform="matrix(4.2706415,0,0,3.1411194,1229.6666,13.85943)"
       style="font-style:normal;font-variant:normal;font-weight:normal;font-stretch:normal;font-size:39.99980545px;line-height:1.25;font-family:'Cascadia Code';-inkscape-font-specification:'Cascadia Code, Normal';font-variant-ligatures:no-contextual;font-variant-caps:normal;font-variant-numeric:normal;font-feature-settings:normal;text-align:start;letter-spacing:0px;word-spacing:0px;writing-mode:lr-tb;text-anchor:start;fill:#ffffff;fill-opacity:1;stroke:none;"
       id="flowRoot3793"
       xml:space="preserve"><flowRegion
         style="font-style:normal;font-variant:normal;font-weight:normal;font-stretch:normal;font-size:39.99980545px;font-family:'Cascadia Code';-inkscape-font-specification:'Cascadia Code, Normal';font-variant-ligatures:no-contextual;font-variant-caps:normal;font-variant-numeric:normal;font-feature-settings:normal;text-align:start;writing-mode:lr-tb;text-anchor:start;fill:#ffffff;fill-opacity:1;"
         id="flowRegion3795"><rect
           style="font-style:normal;font-variant:normal;font-weight:normal;font-stretch:normal;font-size:39.99980545px;font-family:'Cascadia Code';-inkscape-font-specification:'Cascadia Code, Normal';font-variant-ligatures:no-contextual;font-variant-caps:normal;font-variant-numeric:normal;font-feature-settings:normal;text-align:start;writing-mode:lr-tb;text-anchor:start;fill:#ffffff;fill-opacity:1;"
           y="11.016949"
           x="-287.54236"
           height="178.47458"
           width="188.38983"
           id="rect3797" /></flowRegion><flowPara
         style="font-style:normal;font-variant:normal;font-weight:normal;font-stretch:normal;font-size:39.99980545px;font-family:'Cascadia Code';-inkscape-font-specification:'Cascadia Code, Normal';font-variant-ligatures:no-contextual;font-variant-caps:normal;font-variant-numeric:normal;font-feature-settings:normal;text-align:start;writing-mode:lr-tb;baseline-shift:baseline;text-anchor:start;fill:#ffffff;fill-opacity:1;"
         id="flowPara3799">Ɑ</flowPara></flowRoot>    <g
       id="g3857"
       transform="matrix(0.60708076,0,0,0.60708076,82.692592,110.39888)">
      <g
         transform="translate(-127.24576,-7.4364407)"
         id="g42"
         clip-path="url(#id1-1)">
        <path
           style="fill:#ffae4b;fill-opacity:1;fill-rule:nonzero"
           inkscape:connector-curvature="0"
           id="path40"
           d="m 79.515625,19.738281 c -0.01172,0.316407 -0.0039,0.628907 -0.02344,0.933594 -0.02344,0.304687 -0.04688,0.601563 -0.07031,0.890625 -0.0625,0.578125 -0.121094,1.125 -0.226563,1.621094 -0.04297,0.246094 -0.08984,0.484375 -0.132812,0.710937 -0.04687,0.226563 -0.105469,0.4375 -0.152344,0.636719 -0.09766,0.398438 -0.191406,0.742188 -0.285156,1.023438 -0.175781,0.558593 -0.289062,0.875 -0.289062,0.875 0,0 0.01562,-0.335938 0.07031,-0.917969 0.03125,-0.285157 0.04687,-0.640625 0.07813,-1.042969 0.03516,-0.402344 0.04687,-0.855469 0.07031,-1.351562 0.0078,-0.121094 0.01172,-0.246094 0.01562,-0.375 0.0039,-0.128907 0.0039,-0.261719 0.0039,-0.394532 -0.0039,-0.265625 0.01172,-0.539062 0.01172,-0.820312 -0.0078,-0.28125 -0.01563,-0.566406 -0.02344,-0.863282 -0.01172,-0.292968 -0.02734,-0.59375 -0.04297,-0.898437 C 78.4375,18.546875 78.277344,17.257812 78,15.992188 77.933594,15.675781 77.851562,15.359375 77.773438,15.046875 77.679688,14.738281 77.609375,14.425781 77.507812,14.125 c -0.191406,-0.609375 -0.410156,-1.199219 -0.640624,-1.765625 -0.238282,-0.558594 -0.476563,-1.101563 -0.738282,-1.597656 -0.261718,-0.496094 -0.527344,-0.957031 -0.789062,-1.375 -0.527344,-0.839844 -1.035156,-1.5 -1.410156,-1.953125 -0.375,-0.449219 -0.621094,-0.6875 -0.621094,-0.6875 0,0 0.07813,0.039062 0.210937,0.128906 0.136719,0.089844 0.332031,0.21875 0.566407,0.40625 0.234374,0.1875 0.519531,0.421875 0.820312,0.714844 0.296875,0.292968 0.632812,0.628906 0.957031,1.027344 0.167969,0.199218 0.328125,0.410156 0.5,0.632812 0.164063,0.222656 0.332031,0.457031 0.488281,0.707031 0.328126,0.492188 0.640626,1.03125 0.929688,1.609375 0.136719,0.289063 0.28125,0.585938 0.402344,0.890625 0.0625,0.15625 0.132812,0.308594 0.191406,0.464844 0.05469,0.15625 0.113281,0.3125 0.167969,0.472656 0.117187,0.316407 0.210937,0.644531 0.308593,0.972657 0.08594,0.328124 0.171876,0.660156 0.25,0.992187 0.136719,0.667969 0.253907,1.34375 0.316407,2.007813 0.02734,0.335937 0.07031,0.667968 0.07422,0.992187 0.0078,0.328125 0.03516,0.652344 0.02344,0.972656 z M 52.503906,67.261719 c 0.410156,0.328125 0.816406,0.628906 1.214844,0.90625 0.199219,0.136719 0.394531,0.269531 0.582031,0.394531 0.191407,0.125 0.378907,0.242188 0.558594,0.355469 0.175781,0.121093 0.359375,0.207031 0.527344,0.3125 0.167969,0.09766 0.324219,0.199219 0.480469,0.277343 0.308593,0.15625 0.570312,0.320313 0.796874,0.429688 0.453126,0.222656 0.710938,0.363281 0.710938,0.363281 0,0 -0.289062,-0.05078 -0.789062,-0.160156 -0.253907,-0.05859 -0.550782,-0.148437 -0.894532,-0.25 -0.34375,-0.109375 -0.726562,-0.246094 -1.132812,-0.417969 -0.203125,-0.08984 -0.414063,-0.179687 -0.632813,-0.277344 -0.214843,-0.101562 -0.433593,-0.21875 -0.660156,-0.335937 -0.445313,-0.242187 -0.910156,-0.515625 -1.363281,-0.828125 -0.460938,-0.3125 -0.917969,-0.660156 -1.359375,-1.035156 -0.222657,-0.1875 -0.433594,-0.386719 -0.648438,-0.585938 C 49.683594,66.207031 49.476562,66 49.269531,65.789062 48.875,65.355469 48.484375,64.917969 48.136719,64.460938 47.78125,64.007812 47.46875,63.539062 47.175781,63.078125 46.890625,62.617188 46.628906,62.160156 46.40625,61.714844 46.179688,61.273438 45.996094,60.84375 45.832031,60.445312 45.507812,59.644531 45.308594,58.957031 45.191406,58.46875 c -0.117187,-0.484375 -0.148437,-0.769531 -0.148437,-0.769531 0,0 0.03125,0.0625 0.09375,0.183593 0.05859,0.117188 0.148437,0.292969 0.265625,0.511719 0.113281,0.222657 0.261718,0.484375 0.425781,0.785157 0.171875,0.296874 0.367187,0.632812 0.582031,0.992187 0.21875,0.359375 0.464844,0.742187 0.730469,1.144531 0.261719,0.402344 0.558594,0.808594 0.867187,1.234375 0.3125,0.414063 0.640626,0.84375 0.992188,1.261719 0.347656,0.421875 0.71875,0.835938 1.097656,1.238281 0.191406,0.203125 0.386719,0.402344 0.582032,0.597657 0.207031,0.183593 0.394531,0.386718 0.601562,0.566406 0.40625,0.367187 0.8125,0.722656 1.222656,1.046875 z M 92.59375,42.109375 c -2.382812,0.800781 -4.984375,-0.78125 -6.117188,-2.757813 -2.574218,-4.496093 3.441407,-9.214843 4.050782,-13.757812 0.425781,-3.210938 0.511718,-5.730469 -1.539063,-8.460938 0.07422,3.960938 0.347657,10.1875 -5.558593,9.96875 -5.976563,-0.21875 -1.539063,-6.875 -1.855469,-10.140624 C 80.832031,9.296875 73.0625,2.460938 65.707031,0.964844 60.96875,0 56.667969,0.316406 52.578125,2.929688 c 4.140625,-0.449219 10.050781,-0.3125 12.914063,3.210937 2.925781,3.597656 3.472656,8.753906 2.363281,13.089844 -0.773438,3.015625 -3.101563,7.566406 -6.304688,8.660156 -3.109375,1.0625 -7.976562,-3.121094 -6.5625,-6.417969 -4.832031,1.6875 -7.597656,7.167969 -6.460937,11.949219 0.878906,3.714844 4.714844,5.195313 6.546875,8.234375 2.425781,4.015625 0.05469,9.515625 -3.671875,12.050781 -3.351563,2.28125 -6.613282,1.449219 -9.738282,-0.703125 0.453126,14.414063 13.945313,21.613282 27.75,21.585938 -0.359374,-0.136719 -0.710937,-0.292969 -1.054687,-0.453125 -3.289063,-0.894531 -6.378906,-2.59375 -9.046875,-4.570313 -1.914062,-1.421875 -3.691406,-3.09375 -4.898438,-5.136718 -0.953124,-1.617188 -2.300781,-4.65625 -1.996093,-6.574219 0.425781,-2.617188 4.089843,-1.242188 5.828125,-1.910157 1.90625,-0.734374 3.554687,-1.9375 4.9375,-3.402343 3.703125,-3.941407 2.949218,-7.832031 -0.207032,-11.714844 5.425782,-0.175781 8.582032,3.890625 11.167969,7.875 3.289063,5.070313 6.457031,-4.492187 7.652344,-6.46875 -0.324219,0.535156 0.367187,2.757813 0.476563,3.394531 0.1875,1.058594 0.398437,2.121094 0.730468,3.144532 0.507813,1.582031 1.257813,2.984374 2.628906,4.007812 2.257813,1.683594 6.03125,2.867188 7.351563,-0.554688 -0.226563,0.582032 0.140625,1.851563 0.144531,2.496094 0.0039,0.910156 -0.05469,1.820313 -0.183594,2.71875 -0.324218,2.3125 -1.050781,4.859375 -2.171874,6.929688 -1.460938,2.707031 -3.648438,5.054687 -6.246094,6.832031 6.5,-3.332031 11.195312,-9.097656 12.871094,-17.191406 1.308593,-6.328125 0.433593,-12.347657 -1.402344,-18.472657 -0.445313,2.3125 -0.726563,5.671876 -3.402344,6.570313" />
      </g>
      <g
         transform="translate(-127.24576,-7.4364407)"
         id="g46"
         clip-path="url(#id2-3)">
        <path
           style="fill:#d32f23;fill-opacity:1;fill-rule:nonzero"
           inkscape:connector-curvature="0"
           id="path44"
           d="m 90.773438,64.371094 c 1.121093,-2.070313 1.847656,-4.617188 2.171874,-6.929688 0.128907,-0.898437 0.1875,-1.808594 0.183594,-2.71875 -0.0039,-0.644531 -0.371094,-1.914062 -0.144531,-2.496094 -1.320313,3.421876 -5.09375,2.238282 -7.351563,0.554688 C 84.261719,51.757812 83.511719,50.355469 83.003906,48.773438 82.671875,47.75 82.460938,46.6875 82.273438,45.628906 c -0.109376,-0.636718 -0.800782,-2.859375 -0.476563,-3.394531 -1.191406,1.976563 -4.363281,11.539063 -7.652344,6.46875 -2.585937,-3.984375 -5.742187,-8.050781 -11.167969,-7.875 3.15625,3.882813 3.910157,7.773437 0.207032,11.714844 -1.382813,1.464843 -3.03125,2.667969 -4.9375,3.402343 -1.738282,0.667969 -5.402344,-0.707031 -5.828125,1.910157 -0.304688,1.917969 1.042969,4.957031 1.996093,6.574219 1.207032,2.042968 2.984376,3.714843 4.898438,5.136718 2.667969,1.976563 5.761719,3.675782 9.046875,4.570313 C 67.101562,73.542969 65.914062,72.808594 64.828125,72 63.523438,71.035156 62.316406,69.894531 61.492188,68.503906 60.84375,67.40625 59.925781,65.335938 60.136719,64.03125 c 0.285156,-1.78125 2.78125,-0.847656 3.964843,-1.300781 1.300782,-0.5 2.421876,-1.320313 3.359376,-2.316407 2.523437,-2.683593 2.007812,-5.332031 -0.140626,-7.976562 3.695313,-0.121094 5.84375,2.648438 7.605469,5.363281 2.238281,3.449219 4.394531,-3.058593 5.210938,-4.40625 -0.222657,0.367188 0.25,1.878907 0.324219,2.3125 0.121093,0.722657 0.269531,1.445313 0.492187,2.140625 0.347656,1.078125 0.859375,2.03125 1.792969,2.726563 1.539062,1.148437 4.105468,1.953125 5.003906,-0.375 -0.15625,0.398437 0.09375,1.261719 0.09766,1.699219 0.0039,0.621093 -0.03516,1.238281 -0.125,1.851562 -0.21875,1.574219 -0.71875,3.304688 -1.476562,4.714844 -0.59375,1.101562 -1.367188,2.117187 -2.269532,3.011718 0.183594,-0.08984 0.367188,-0.179687 0.550782,-0.273437 2.597656,-1.777344 4.785156,-4.125 6.246094,-6.832031" />
      </g>
      <g
         transform="translate(-127.24576,-7.4364407)"
         id="g50"
         clip-path="url(#id3-4)"
         style="fill-rule:nonzero">
        <path
           style="fill:#022033;fill-opacity:1;fill-rule:nonzero"
           inkscape:connector-curvature="0"
           id="path48"
           d="m 87.722656,63.75 c 0.08984,-0.613281 0.128906,-1.230469 0.125,-1.851562 -0.0039,-0.4375 -0.253906,-1.300782 -0.09766,-1.699219 -0.898438,2.328125 -3.464844,1.523437 -5.003906,0.375 -0.933594,-0.695313 -1.445313,-1.648438 -1.792969,-2.726563 -0.222656,-0.695312 -0.371094,-1.417968 -0.492187,-2.140625 -0.07422,-0.433593 -0.546876,-1.945312 -0.324219,-2.3125 -0.816407,1.347657 -2.972657,7.855469 -5.210938,4.40625 -1.761719,-2.714843 -3.910156,-5.484375 -7.605469,-5.363281 2.148438,2.644531 2.664063,5.292969 0.140626,7.976562 -0.9375,0.996094 -2.058594,1.816407 -3.359376,2.316407 -1.183593,0.453125 -3.679687,-0.480469 -3.964843,1.300781 -0.210938,1.304688 0.707031,3.375 1.355469,4.472656 0.824218,1.390625 2.03125,2.53125 3.335937,3.496094 1.085937,0.808594 2.273437,1.542969 3.53125,2.136719 0.34375,0.160156 0.695313,0.316406 1.054687,0.453125 0.320313,0 0.644532,-0.0039 0.964844,-0.01563 0.05469,0 0.109375,0 0.164063,-0.0039 4.9375,-0.152343 9.503906,-1.191406 13.433593,-3.09375 0.902344,-0.894531 1.675782,-1.910156 2.269532,-3.011718 0.757812,-1.410156 1.257812,-3.140625 1.476562,-4.714844" />
      </g>
      <path
         style="fill:#107faa;fill-opacity:1;fill-rule:nonzero"
         inkscape:connector-curvature="0"
         id="path52"
         d="m -47.827794,10.340903 c -0.0625,-0.6679687 -0.179688,-1.3437497 -0.316407,-2.0117187 -0.07812,-0.332031 -0.164062,-0.664063 -0.25,-0.992187 -0.101562,-0.328126 -0.191406,-0.65625 -0.308593,-0.972657 -0.05469,-0.160156 -0.113281,-0.316406 -0.167969,-0.472656 -0.05859,-0.15625 -0.128906,-0.308594 -0.191406,-0.464844 -0.121094,-0.304687 -0.265625,-0.601562 -0.40625,-0.890625 -0.285156,-0.578125 -0.597656,-1.117187 -0.921875,-1.609375 -0.160157,-0.25 -0.328125,-0.484375 -0.492188,-0.707031 -0.171875,-0.21875 -0.332031,-0.433594 -0.5,-0.628906 -0.324219,-0.402344 -0.660156,-0.73828202 -0.957031,-1.03125002 -0.300781,-0.292969 -0.585938,-0.527344 -0.820312,-0.714844 -0.234376,-0.1875 -0.433594,-0.316406 -0.566407,-0.40625 -0.132812,-0.089844 -0.210937,-0.128906 -0.210937,-0.128906 0,0 0.246094,0.238281 0.621094,0.6875 0.375,0.453125 0.882812,1.11328102 1.410156,1.95312502 0.261718,0.417969 0.527344,0.878906 0.789062,1.378906 0.261719,0.492187 0.5,1.035156 0.738282,1.59375 0.230468,0.566406 0.449218,1.15625 0.640624,1.765625 0.101563,0.300781 0.171876,0.613281 0.265626,0.921875 0.07812,0.3125 0.160156,0.628906 0.226562,0.945313 0.277344,1.265624 0.441406,2.5546867 0.519531,3.7734367 0.01563,0.304687 0.03125,0.605469 0.04297,0.898437 0.0078,0.296876 0.01563,0.582032 0.02344,0.863282 0,0.28125 -0.01563,0.554687 -0.01172,0.820312 0,0.136719 0,0.265625 -0.0039,0.394532 -0.0039,0.128906 -0.0078,0.253906 -0.01562,0.375 -0.02344,0.496093 -0.03516,0.949218 -0.07031,1.351562 -0.03125,0.402344 -0.04687,0.753906 -0.07813,1.042969 -0.05469,0.582031 -0.07031,0.917969 -0.07031,0.917969 0,0 0.113281,-0.316407 0.289062,-0.875 0.09375,-0.28125 0.1875,-0.625 0.285156,-1.023438 0.04687,-0.199219 0.105469,-0.410156 0.152344,-0.636719 0.04297,-0.226562 0.08984,-0.464843 0.132812,-0.710937 0.105469,-0.496094 0.164063,-1.042969 0.226563,-1.621094 0.02344,-0.289062 0.04687,-0.585938 0.07031,-0.890625 0.01953,-0.304687 0.01172,-0.617187 0.02344,-0.933594 0.01172,-0.320312 -0.01563,-0.644531 -0.02344,-0.972656 -0.0039,-0.324219 -0.04688,-0.65625 -0.07422,-0.988281" />
      <path
         style="fill:#107faa;fill-opacity:1;fill-rule:nonzero"
         inkscape:connector-curvature="0"
         id="path54"
         d="m -76.566075,58.211997 c -0.195313,-0.195313 -0.390626,-0.394532 -0.582032,-0.597657 -0.378906,-0.402343 -0.75,-0.816406 -1.097656,-1.238281 -0.351562,-0.417969 -0.679688,-0.847656 -0.992188,-1.261719 -0.304687,-0.425781 -0.605468,-0.835937 -0.867187,-1.234375 -0.265625,-0.402344 -0.511719,-0.785156 -0.730469,-1.144531 -0.214844,-0.359375 -0.410156,-0.695313 -0.582031,-0.992187 -0.164063,-0.300782 -0.3125,-0.5625 -0.425781,-0.785157 -0.117188,-0.21875 -0.207032,-0.394531 -0.265625,-0.511719 -0.0625,-0.121093 -0.09375,-0.183593 -0.09375,-0.183593 0,0 0.03125,0.285156 0.148437,0.769531 0.117188,0.488281 0.316406,1.175781 0.640625,1.976562 0.164063,0.398438 0.347657,0.828126 0.574219,1.269532 0.222656,0.445312 0.484375,0.902344 0.769531,1.363281 0.292969,0.460937 0.605469,0.929687 0.960938,1.382813 0.347656,0.457031 0.738281,0.894531 1.132812,1.328124 0.207031,0.210938 0.414063,0.417969 0.625,0.621094 0.214844,0.199219 0.425781,0.398438 0.652344,0.585938 0.4375,0.375 0.894531,0.722656 1.355469,1.035156 0.453125,0.3125 0.917968,0.585938 1.363281,0.828125 0.226563,0.117187 0.445313,0.234375 0.660156,0.335937 0.21875,0.09766 0.429688,0.1875 0.632813,0.277344 0.40625,0.171875 0.789062,0.308594 1.132812,0.417969 0.34375,0.101563 0.640625,0.191406 0.894532,0.25 0.503906,0.109375 0.789062,0.160156 0.789062,0.160156 0,0 -0.257812,-0.140625 -0.710938,-0.363281 -0.226562,-0.109375 -0.488281,-0.273438 -0.796874,-0.429688 -0.15625,-0.07812 -0.3125,-0.179687 -0.480469,-0.277343 -0.167969,-0.105469 -0.351563,-0.191407 -0.527344,-0.3125 -0.179687,-0.113281 -0.367187,-0.230469 -0.558594,-0.355469 -0.1875,-0.125 -0.382812,-0.257812 -0.582031,-0.394531 -0.398438,-0.277344 -0.804688,-0.578125 -1.214844,-0.90625 -0.410156,-0.324219 -0.816406,-0.679688 -1.222656,-1.046875 -0.207031,-0.179688 -0.394531,-0.382813 -0.601562,-0.566406" />
    </g>
  </g>
</svg>
